<?xml version="1.0" encoding="UTF-8"?>
<!DOCTYPE svg PUBLIC "-//W3C//DTD SVG 1.1//EN" "http://www.w3.org/Graphics/SVG/1.1/DTD/svg11.dtd">
<!-- Creator: CorelDRAW X6 -->
<svg xmlns="http://www.w3.org/2000/svg" xml:space="preserve" width="7.63889in" height="5.34722in" version="1.1" style="shape-rendering:geometricPrecision; text-rendering:geometricPrecision; image-rendering:optimizeQuality; fill-rule:evenodd; clip-rule:evenodd"
viewBox="0 0 7639 5347"
 xmlns:xlink="http://www.w3.org/1999/xlink">
 <defs>
  <style type="text/css">
   <![CDATA[
    .fil1 {fill:#393C3E;fill-rule:nonzero}
    .fil0 {fill:#D6E2EA;fill-rule:nonzero}
   ]]>
  </style>
 </defs>
 <g id="Layer_x0020_1">
  <metadata id="CorelCorpID_0Corel-Layer"/>
  <polygon class="fil0" points="0,5347 7639,5347 7639,0 0,0 "/>
  <path class="fil1" d="M6259 4462l0 -190 16 0 0 -28 405 312 -421 -93zm407 152l-294 0 43 -79 251 53 0 26zm-447 -152l-421 93 405 -312 0 28 16 0 0 190zm-403 152l0 -26 251 -53 43 79 -294 0zm-473 -152l0 -190 16 0 0 -28 405 312 -421 -93zm405 152l-294 0 43 -79 251 53 0 26zm-446 -152l-421 93 405 -312 0 28 16 0 0 190zm-405 152l0 -26 251 -53 43 79 -294 0zm1980 -91l0 -231 -24 0 0 231 -156 12 -421 -328 -73 0 -421 328 -2 0 -421 -328 -73 0 -421 328 -28 0 0 -126 53 0 0 -45 -73 -73 -36 0 -28 -73 -231 0 0 41 32 0 -24 81 -150 0 -77 194 -170 0 57 247 2855 0c53,-174 190,-284 190,-284l-356 24z"/>
  <path class="fil1" d="M3086 4588l-125 0 0 -37 125 0 0 37zm0 53l-125 0 0 -37 125 0 0 37zm-145 -53l-125 0 0 -37 125 0 0 37zm0 53l-125 0 0 -37 125 0 0 37zm-189 -136l-27 0 27 -197 0 197zm-41 -276l33 0 -23 204 -10 -204zm-43 204l-23 -204 33 0 -10 204zm-31 72l0 -197 27 197 -27 0zm-78 82l-125 0 0 -37 125 0 0 37zm0 53l-125 0 0 -37 125 0 0 37zm-145 -53l-125 0 0 -37 125 0 0 37zm0 53l-125 0 0 -37 125 0 0 37zm-145 -53l-125 0 0 -37 125 0 0 37zm0 53l-125 0 0 -37 125 0 0 37zm-145 -53l-125 0 0 -37 125 0 0 37zm0 53l-125 0 0 -37 125 0 0 37zm-193 -132l-27 0 27 -197 0 197zm-41 -276l33 0 -23 204 -10 -204zm-43 204l-23 -204 33 0 -10 204zm-31 72l0 -197 27 197 -27 0zm-78 78l-125 0 0 -37 125 0 0 37zm0 53l-125 0 0 -37 125 0 0 37zm-145 -53l-125 0 0 -37 125 0 0 37zm0 53l-125 0 0 -37 125 0 0 37zm-145 -53l-125 0 0 -37 125 0 0 37zm0 53l-125 0 0 -37 125 0 0 37zm-145 -53l-125 0 0 -37 125 0 0 37zm0 53l-125 0 0 -37 125 0 0 37zm-326 -292l0 -115 -29 0 0 115 -33 0 0 -214 73 -38 30 252 -41 0zm-78 -2l-49 -179 49 -27 0 206zm-45 47l0 37 -74 0 0 41 -25 0 0 -169 -70 0 0 165 -58 0 0 -189 199 -103 60 218 -33 0zm264 -160l0 282 -34 0 34 -282zm2080 391l0 -230 -21 0 0 234 -33 0 -41 29 0 -123 -307 0 0 123 -19 0 0 -619 -21 0 -12 167 -105 0 -10 -167 -23 0 0 496 64 0 0 123 -96 0 0 -123 -595 0 0 123 -23 0 0 -619 -21 0 -12 167 -105 0 -10 -167 -23 0 0 496 64 0 0 123 -96 0 0 -123 -595 0 0 123 -76 0c0,-4 0,-123 0,-123l58 0 0 -477 -21 0 -49 362 -49 -428 -37 72 -362 183 0 -66 -21 0 0 424 -197 0 45 177 2891 0c29,-62 156,-189 156,-189 -90,25 -300,33 -300,33z"/>
  <path class="fil1" d="M7146 2959l-270 0 0 -266 58 31 254 130 -41 105zm-565 -50l-40 0 0 -50 40 0 0 50zm0 64l-40 0 0 -50 40 0 0 50zm-56 -64l-146 0 0 -50 146 0 0 50zm0 64l-146 0 0 -50 146 0 0 50zm-162 -64l-146 0 0 -50 146 0 0 50zm0 64l-146 0 0 -50 146 0 0 50zm-161 -64l-146 0 0 -50 146 0 0 50zm0 64l-146 0 0 -50 146 0 0 50zm-162 0l-23 -46 23 0 0 45zm-53 -113l50 0 0 52 -28 0 -23 -52zm0 -171l570 146 -570 0 0 -146zm-109 221l-40 0 0 -50 40 0 0 50zm0 64l-40 0 0 -50 40 0 0 50zm-56 -64l-146 0 0 -50 146 0 0 50zm0 64l-146 0 0 -50 146 0 0 50zm-162 -64l-146 0 0 -50 146 0 0 50zm0 64l-146 0 0 -50 146 0 0 50zm-162 -64l-146 0 0 -50 146 0 0 50zm0 64l-146 0 0 -50 146 0 0 50zm-162 0l-23 -46 23 0 0 45zm-53 -113l50 0 0 52 -28 0 -23 -52zm0 -171l570 146 -570 0 0 -146zm-103 221l-40 0 0 -50 40 0 0 50zm0 64l-40 0 0 -50 40 0 0 50zm-56 -64l-146 0 0 -50 146 0 0 50zm0 64l-146 0 0 -50 146 0 0 50zm-162 -64l-146 0 0 -50 146 0 0 50zm0 64l-146 0 0 -50 146 0 0 50zm-161 -64l-146 0 0 -50 146 0 0 50zm0 64l-146 0 0 -50 146 0 0 50zm-162 0l-23 -46 23 0 0 45zm-53 -113l50 0 0 52 -28 0 -23 -52zm0 -171l570 146 -570 0 0 -146zm-75 221l-115 0 0 -50 115 0 0 50zm0 64l-115 0 0 -50 115 0 0 50zm2357 -311l0 1 -66 0 0 -289 -50 0 0 289 -58 0 0 -140 -29 0 0 144 -21 0 0 194 0 113 -50 0 0 -153c0,0 -686,-179 -684,-179l0 219 -18 0 0 -39c0,0 -686,-179 -684,-179l0 219 -13 0 0 -39c0,0 -686,-179 -684,-179l0 198 -116 0 0 -29 25 0c0,0 -10,-33 -80,-33 -70,0 -80,33 -80,33l25 0 0 82 -21 0 0 -58 -30 0 0 -223 -24 0 0 190 -33 0 0 -190 -25 0 0 454 29 0 -41 128 2822 0c62,-144 202,-227 202,-227l49 -124 -347 -182z"/>
  <path class="fil1" d="M914 2801c42,6 89,5 125,5 83,0 216,0 216,0 14,-3 63,-18 63,-18l4 -31 -11 0 31 -58 -34 0 -55 58c0,0 -191,0 -227,-6 -36,-6 -47,-10 -60,-10 -13,0 -27,6 -34,8 -26,10 -39,10 -49,15 -38,19 -11,31 31,37zm1827 0c42,6 89,5 125,5 83,0 216,0 216,0 14,-3 63,-18 63,-18l4 -31 -11 0 31 -58 -34 0 -55 58c0,0 -191,0 -227,-6 -36,-6 -47,-10 -60,-10 -13,0 -27,6 -34,8 -26,10 -39,10 -49,15 -38,19 -11,31 31,37zm705 47l0 189 -150 158 -2767 0c-39,-216 -123,-347 -123,-347l1187 0 0 -208c-23,0 -42,-19 -42,-42 0,-23 19,-42 43,-42l7 0c0,1 0,-206 0,-206l26 1 0 206 70 0 0 -72c0,-24 20,-44 44,-44l113 0c24,0 44,20 44,44l0 28 0 44 119 0c23,0 42,19 42,42 0,23 -20,42 -43,42l0 62 248 0c35,-4 46,15 46,50l0 96 1137 0z"/>
  <path class="fil1" d="M7165 1242c0,18 -87,253 -104,281 -18,28 -57,28 -57,28l-2618 0c-35,-170 -187,-343 -187,-344 0,-2 611,2 604,0l0 -53 -231 -49 14 -48 226 25c14,-25 46,-28 57,-28 11,0 115,0 115,0 39,0 46,4 46,57 0,53 0,99 0,99l92 0 0 -198 53 0 0 -124 -71 0 0 -53 28 0 -57 -117 21 -11 53 110 0 -251 25 0 0 254 64 0 0 -26c0,-22 18,-40 40,-40l8 0c22,0 40,18 40,40l0 26 39 0c25,0 32,4 32,46l0 166c0,25 11,57 32,21 21,-35 88,-166 110,-205 21,-39 28,-42 53,-42 25,0 71,0 117,0 46,0 42,35 35,57 -7,21 -81,264 -81,264l120 0 0 -111c0,-55 45,-100 100,-100l111 0c55,0 100,45 100,100l0 111c0,0 173,-2 216,0 23,1 35,8 35,40 0,32 0,66 0,66l67 -1 0 -95c0,-26 21,-47 47,-47l113 0c26,0 47,21 47,47l0 18 150 -53 18 49 -166 64 0 28 544 0z"/>
  <path class="fil1" d="M3191 1447l-146 0c90,-15 161,-35 161,-35l-15 35zm150 -205c-8,-54 -8,-71 -88,-71 -79,0 -1232,0 -1232,0l0 -58c0,0 4,-33 -29,-33 -54,0 -84,0 -84,0 0,0 0,-42 0,-75 0,-37 -2,-46 -33,-46 -33,0 -167,0 -167,0l0 -134 -38 0 0 134c0,0 -84,0 -117,0 -33,0 -46,8 -46,46 0,38 0,167 0,167l-952 0c-58,0 -115,20 -138,96 -13,42 -21,96 0,154 27,75 92,122 150,127 46,4 2292,0 2292,0 0,0 50,-61 109,-61 58,0 209,0 209,0l-17 54 46 0 54 -142c0,0 21,-4 50,-17 29,-13 38,-88 29,-142z"/>
 </g>
</svg>
